<?xml version="1.0" encoding="UTF-8"?>
<svg id="Layer_2" data-name="Layer 2" xmlns="http://www.w3.org/2000/svg" viewBox="0 0 223.49 57.67">
  <defs>
    <style>
      .cls-1 {
        fill: #53c0a3;
        fill-rule: evenodd;
      }

      .cls-2 {
        fill: #28303d;
      }
    </style>
  </defs>
  <g id="Layer_1-2" data-name="Layer 1">
    <g>
      <g>
        <path class="cls-2" d="M188.54,47.12h-7.75v-26.8h7.28l.47,6.34v20.46ZM196.32,27.63c-.36-.05-.8-.09-1.31-.14-.51-.04-.97-.06-1.36-.06-1.29,0-2.35.19-3.18.58-.83.39-1.45.97-1.85,1.73-.4.77-.61,1.74-.64,2.91l-1.49-.77c0-2.36.3-4.45.9-6.27.6-1.82,1.48-3.24,2.62-4.26,1.15-1.02,2.53-1.54,4.15-1.54.38,0,.78.02,1.21.07.43.05.78.13,1.04.25l-.1,7.48Z"/>
        <path class="cls-2" d="M198.55,33.53c0-2.72.44-5.11,1.32-7.17.88-2.06,2.14-3.66,3.78-4.8,1.63-1.15,3.57-1.72,5.82-1.72,1.82,0,3.33.35,4.53,1.04,1.2.69,2.18,1.66,2.93,2.91.75,1.25,1.34,2.71,1.77,4.4.43,1.68.77,3.52,1.02,5.5v.45c-.35,2.48-.9,4.74-1.67,6.79-.77,2.05-1.85,3.68-3.24,4.89-1.4,1.21-3.19,1.82-5.39,1.82s-4.16-.59-5.78-1.77c-1.63-1.18-2.88-2.79-3.76-4.84-.88-2.05-1.32-4.37-1.32-6.96v-.52ZM223.49,20.33v25.8c0,2.46-.56,4.55-1.67,6.28-1.11,1.72-2.67,3.03-4.66,3.93-1.99.89-4.3,1.34-6.92,1.34-1.11,0-2.29-.15-3.55-.45-1.26-.3-2.46-.75-3.59-1.36-1.13-.61-2.08-1.37-2.86-2.28l3.37-4.75c.76.84,1.68,1.53,2.75,2.06,1.07.53,2.27.79,3.59.79,1.83,0,3.25-.49,4.26-1.46,1.01-.97,1.51-2.34,1.51-4.11v-19.49l.74-6.29h7.03ZM206.3,34.05c0,1.35.18,2.58.54,3.69.36,1.11.92,1.99,1.67,2.64.75.65,1.71.98,2.88.98,1.25,0,2.27-.26,3.03-.79.77-.53,1.34-1.27,1.72-2.22.38-.95.59-2.05.62-3.31v-2.28c-.02-1.07-.13-2.03-.35-2.86-.21-.83-.54-1.53-.97-2.09-.43-.56-.97-.99-1.63-1.28-.66-.29-1.45-.43-2.38-.43-1.14,0-2.09.33-2.86.98-.77.65-1.34,1.54-1.72,2.65-.38,1.11-.57,2.38-.57,3.8v.52Z"/>
        <path class="cls-2" d="M8.07,47.12H0V15.24c0-2.3,1.87-4.17,4.17-4.17h3.9v36.06ZM23.75,17.58h-15.68v-6.51h15.68v6.51ZM22.11,32.66H5.89v-6.49h16.22v6.49Z"/>
        <path class="cls-2" d="M33.57,47.12h-3.91c-1.06,0-1.92-.86-1.92-1.92V12.99c0-1.06.86-1.92,1.92-1.92h3.91c1.06,0,1.92.86,1.92,1.92v32.22c0,1.06-.86,1.92-1.92,1.92Z"/>
        <path class="cls-2" d="M39.97,33.01c0-2.7.5-5.11,1.49-7.23.99-2.12,2.43-3.8,4.33-5.03,1.9-1.23,4.21-1.84,6.93-1.84s5.11.61,7.02,1.84c1.91,1.23,3.35,2.9,4.33,5.03.98,2.12,1.47,4.53,1.47,7.23v.54c0,2.68-.49,5.08-1.47,7.22-.98,2.13-2.42,3.81-4.32,5.03-1.9,1.22-4.23,1.83-6.98,1.83s-5.06-.61-6.97-1.83c-1.91-1.22-3.36-2.9-4.35-5.03-.99-2.13-1.49-4.54-1.49-7.22v-.54ZM47.72,33.54c0,1.42.16,2.7.47,3.86.31,1.16.84,2.08,1.58,2.76.74.68,1.74,1.02,3,1.02s2.25-.34,3-1.02c.74-.68,1.27-1.6,1.59-2.76.31-1.16.47-2.45.47-3.86v-.54c0-1.38-.16-2.66-.47-3.83-.31-1.17-.84-2.1-1.59-2.8-.74-.7-1.76-1.05-3.05-1.05s-2.22.35-2.96,1.05c-.73.7-1.26,1.63-1.57,2.8-.31,1.17-.47,2.44-.47,3.83v.54Z"/>
        <path class="cls-2" d="M151.06,33.01c0-2.7.5-5.11,1.49-7.23.99-2.12,2.43-3.8,4.33-5.03,1.9-1.23,4.21-1.84,6.93-1.84s5.11.61,7.02,1.84c1.91,1.23,3.35,2.9,4.33,5.03.98,2.12,1.47,4.53,1.47,7.23v.54c0,2.68-.49,5.08-1.47,7.22-.98,2.13-2.42,3.81-4.32,5.03-1.9,1.22-4.23,1.83-6.98,1.83s-5.06-.61-6.97-1.83c-1.91-1.22-3.36-2.9-4.35-5.03-.99-2.13-1.49-4.54-1.49-7.22v-.54ZM158.81,33.54c0,1.42.16,2.7.47,3.86.31,1.16.84,2.08,1.58,2.76.74.68,1.74,1.02,3,1.02s2.25-.34,3-1.02c.74-.68,1.27-1.6,1.59-2.76.31-1.16.47-2.45.47-3.86v-.54c0-1.38-.16-2.66-.47-3.83-.31-1.17-.84-2.1-1.59-2.8-.74-.7-1.76-1.05-3.05-1.05s-2.22.35-2.96,1.05c-.73.7-1.26,1.63-1.57,2.8-.31,1.17-.47,2.44-.47,3.83v.54Z"/>
      </g>
      <path class="cls-1" d="M76.4,19.59c1.09.09,1.92.97,2,2.05.37,5.14,3.7,10.94,7.42,14.42,1.13,1.06,2.24,1.85,3.24,2.25.55.22.96.31,1.18.23.43-.16.86-.98,1.23-2.68,1.55-6.98,4.56-13.17,8.43-17.17,1.86-1.92,3.94-3.38,6.19-4.25,2.41-.93,4.97-1.18,7.6-.59,2.74.61,5.49,2.11,8.14,4.67,3.76,3.63,5.75,3.61,7.2,2.12,1.4-1.44,2.81-3.85,4.32-6.4,3.19-5.4,6.7-11.34,12.82-14.03,1.25-.55,2.69.14,3.04,1.45l.94,3.51c.27,1.01-.2,2.06-1.12,2.54-3.66,1.89-6.35,6.45-8.81,10.6-1.74,2.95-3.38,5.74-5.44,7.87-4.75,4.92-10.21,6.08-18.46-1.9-1.55-1.5-3.01-2.34-4.33-2.64-1.03-.23-2.04-.12-3.01.25-1.13.44-2.24,1.25-3.31,2.35-2.88,2.97-5.17,7.79-6.41,13.36-1.02,4.62-3.23,7.28-6.09,8.39-2.24.88-4.65.71-7.05-.26-1.95-.78-3.91-2.12-5.74-3.85-5.04-4.72-9.53-12.85-9.94-20.22-.07-1.35,1.05-2.46,2.39-2.35l3.6.3Z"/>
    </g>
  </g>
</svg>