<?xml version="1.0" encoding="UTF-8"?>
<svg id="Layer_2" data-name="Layer 2" xmlns="http://www.w3.org/2000/svg" viewBox="0 0 223.49 72.81">
  <defs>
    <style>
      .cls-1 {
        fill: #fff;
      }

      .cls-2 {
        fill: #53c0a3;
        fill-rule: evenodd;
      }
    </style>
  </defs>
  <g id="Layer_1-2" data-name="Layer 1">
    <g>
      <path class="cls-1" d="M26.06,72.66h-2.35l4.23-11.31h1.49l-.19,1.87-3.19,9.44ZM31.77,70.24h-6.08v-1.8h6.08v1.8ZM28.68,63.22l-.2-1.87h1.51l4.24,11.31h-2.35l-3.2-9.44Z"/>
      <path class="cls-1" d="M41.39,68.89c0,.75-.11,1.42-.34,2.01-.23.59-.57,1.06-1.04,1.4s-1.07.51-1.79.51c-.83,0-1.5-.24-2.02-.73-.52-.48-.77-1.28-.77-2.4v-5.44h2.14v5.45c0,.34.05.6.16.8.11.2.26.34.44.43.19.09.4.13.63.13.49,0,.87-.09,1.15-.28.28-.19.48-.45.6-.78.12-.33.18-.7.18-1.11l.66-.02ZM40.47,64.25h2.14v8.41h-2.01l-.12-2v-6.4Z"/>
      <path class="cls-1" d="M48.7,65.82h-4.86v-1.57h4.86v1.57ZM47.25,62.18v7.98c0,.24.03.42.1.55.07.13.17.22.29.26.13.05.29.07.47.07.13,0,.26,0,.37-.02.11-.01.21-.03.28-.04v1.62c-.18.06-.37.11-.59.15s-.46.05-.73.05c-.47,0-.88-.08-1.23-.24-.35-.16-.63-.42-.82-.78s-.29-.83-.29-1.42v-8.18h2.14Z"/>
      <path class="cls-1" d="M49.94,68.38c0-.82.16-1.55.47-2.19.31-.64.76-1.15,1.35-1.53.59-.37,1.3-.56,2.13-.56s1.57.19,2.16.56c.59.37,1.04.88,1.35,1.53.31.65.46,1.38.46,2.19v.16c0,.81-.15,1.54-.46,2.19s-.76,1.16-1.34,1.53c-.59.37-1.3.56-2.15.56s-1.55-.19-2.14-.56c-.59-.37-1.04-.88-1.35-1.53-.31-.65-.47-1.38-.47-2.19v-.16ZM52.09,68.54c0,.47.06.89.18,1.28.12.39.32.7.58.93.27.23.62.35,1.05.35s.79-.12,1.05-.35.46-.54.58-.93c.12-.39.18-.82.18-1.28v-.16c0-.46-.06-.89-.18-1.27-.12-.39-.32-.7-.58-.94-.27-.24-.62-.35-1.07-.35s-.78.12-1.05.35c-.27.24-.46.55-.58.94-.12.39-.18.81-.18,1.27v.16Z"/>
      <path class="cls-1" d="M61.74,72.66h-2.14v-8.41h2.01l.13,1.73v6.67ZM60.77,68.18c0-.79.12-1.49.37-2.1s.62-1.1,1.11-1.45c.49-.35,1.11-.53,1.84-.53s1.38.23,1.86.69c.48.46.72,1.21.72,2.26v5.61h-2.14v-5.37c0-.38-.05-.67-.16-.89s-.26-.36-.46-.44c-.2-.08-.44-.12-.72-.12-.31,0-.58.06-.8.17-.22.12-.41.28-.55.49s-.25.46-.31.74c-.06.28-.1.59-.1.92l-.65.02ZM65.63,68c0-.72.12-1.38.36-1.97.24-.59.61-1.06,1.1-1.41s1.08-.52,1.79-.52c.56,0,1.04.1,1.45.31.41.21.72.54.94,1.01s.33,1.08.33,1.86v5.38h-2.14v-5.39c0-.38-.05-.68-.16-.89-.11-.21-.26-.35-.46-.43-.2-.08-.44-.12-.71-.12s-.51.05-.71.15c-.2.1-.37.24-.51.43-.13.18-.24.4-.31.64-.07.25-.1.51-.1.8l-.86.13Z"/>
      <path class="cls-1" d="M78.59,68.8h-1.26c-.63,0-1.09.12-1.39.37s-.45.57-.45.96c0,.3.1.54.31.74s.49.29.86.29.66-.07.92-.21c.26-.14.46-.31.6-.51.14-.2.21-.39.21-.56l.61.93c-.07.21-.18.43-.32.66s-.33.45-.55.65c-.23.2-.5.37-.82.5s-.69.19-1.11.19c-.54,0-1.02-.11-1.46-.32-.43-.21-.77-.51-1.03-.89-.25-.38-.38-.81-.38-1.3,0-.89.33-1.57.99-2.05.66-.48,1.62-.72,2.89-.72h1.34l.02,1.27ZM78.28,67.02c0-.4-.11-.73-.32-.97-.21-.24-.54-.36-.99-.36-.26,0-.49.04-.68.13-.19.09-.34.21-.45.37s-.16.34-.16.56h-2.14c0-.48.15-.92.44-1.32s.7-.72,1.23-.97c.53-.24,1.15-.37,1.87-.37.64,0,1.22.11,1.72.33.5.22.9.54,1.19.98.29.44.43.98.43,1.63v3.61c0,.45.03.82.09,1.11.06.3.14.55.25.77v.13h-2.17c-.1-.22-.18-.5-.23-.84s-.08-.68-.08-1.01v-3.78Z"/>
      <path class="cls-1" d="M86.56,65.82h-4.86v-1.57h4.86v1.57ZM85.11,62.18v7.98c0,.24.03.42.1.55.07.13.17.22.29.26.13.05.29.07.47.07.13,0,.26,0,.37-.02.11-.01.21-.03.28-.04v1.62c-.18.06-.37.11-.59.15s-.46.05-.73.05c-.47,0-.88-.08-1.23-.24-.35-.16-.63-.42-.82-.78s-.29-.83-.29-1.42v-8.18h2.14Z"/>
      <path class="cls-1" d="M91.98,72.81c-.85,0-1.59-.18-2.21-.55-.62-.36-1.09-.85-1.42-1.47-.33-.61-.49-1.3-.49-2.05v-.3c0-.86.16-1.62.49-2.27.32-.65.78-1.16,1.36-1.53s1.26-.55,2.04-.55c.81,0,1.49.17,2.03.52.54.35.95.83,1.23,1.45.28.62.42,1.34.42,2.16v.91h-6.6v-1.48h4.5v-.17c-.01-.31-.07-.58-.18-.84s-.28-.46-.5-.61c-.23-.15-.53-.23-.89-.23-.4,0-.73.11-.98.34-.26.23-.45.53-.57.92-.12.39-.19.85-.19,1.36v.3c0,.46.08.86.25,1.21.17.35.41.63.73.83.32.2.7.3,1.14.3s.81-.08,1.16-.24.65-.4.9-.73l1.07,1.16c-.26.39-.67.74-1.21,1.06-.54.32-1.23.48-2.05.48Z"/>
      <path class="cls-1" d="M105.28,66.52l2.43-5.17h2.43l-3.74,7.19v4.13h-2.25v-4.13l-3.74-7.19h2.44l2.42,5.17Z"/>
      <path class="cls-1" d="M111.02,68.38c0-.82.16-1.55.47-2.19.31-.64.76-1.15,1.35-1.53.59-.37,1.3-.56,2.13-.56s1.57.19,2.16.56c.59.37,1.04.88,1.35,1.53.31.65.46,1.38.46,2.19v.16c0,.81-.15,1.54-.46,2.19s-.76,1.16-1.34,1.53c-.59.37-1.3.56-2.15.56s-1.55-.19-2.14-.56c-.59-.37-1.04-.88-1.35-1.53-.31-.65-.47-1.38-.47-2.19v-.16ZM113.16,68.54c0,.47.06.89.18,1.28.12.39.32.7.58.93.27.23.62.35,1.05.35s.79-.12,1.05-.35.46-.54.58-.93c.12-.39.18-.82.18-1.28v-.16c0-.46-.06-.89-.18-1.27-.12-.39-.32-.7-.58-.94-.27-.24-.62-.35-1.07-.35s-.78.12-1.05.35c-.27.24-.46.55-.58.94-.12.39-.18.81-.18,1.27v.16Z"/>
      <path class="cls-1" d="M126.58,68.89c0,.75-.11,1.42-.34,2.01-.23.59-.57,1.06-1.04,1.4s-1.07.51-1.79.51c-.83,0-1.5-.24-2.02-.73-.52-.48-.77-1.28-.77-2.4v-5.44h2.14v5.45c0,.34.05.6.16.8.11.2.26.34.44.43.19.09.4.13.63.13.49,0,.87-.09,1.15-.28.28-.19.48-.45.6-.78.12-.33.18-.7.18-1.11l.66-.02ZM125.65,64.25h2.14v8.41h-2.01l-.12-2v-6.4Z"/>
      <path class="cls-1" d="M131.98,72.66h-2.14v-8.41h2.02l.12,1.79v6.61ZM134.48,66.24c-.12-.02-.25-.03-.4-.04-.15-.01-.28-.02-.4-.02-.41,0-.76.07-1.03.21-.27.14-.48.34-.62.61s-.21.59-.23.96l-.45-.09c0-.73.09-1.37.28-1.94.19-.57.46-1.01.83-1.34.37-.33.82-.49,1.36-.49.11,0,.24,0,.37.03s.24.04.32.07l-.02,2.04Z"/>
      <path class="cls-1" d="M146.17,69.7c0-.28-.06-.52-.17-.72-.12-.2-.34-.39-.66-.57-.33-.18-.8-.36-1.43-.55-.52-.17-1.01-.35-1.47-.56-.46-.21-.86-.45-1.2-.73-.34-.28-.61-.6-.81-.97-.19-.37-.29-.79-.29-1.27,0-.63.18-1.18.53-1.65.35-.47.84-.84,1.46-1.1.62-.26,1.33-.4,2.14-.4s1.58.15,2.19.45c.62.3,1.1.72,1.43,1.24.34.52.5,1.12.5,1.79h-2.22c0-.34-.07-.63-.21-.89-.14-.26-.35-.46-.64-.6-.29-.15-.65-.22-1.09-.22s-.77.06-1.05.18-.49.29-.62.5c-.13.21-.2.44-.2.7s.09.49.26.68c.17.2.43.38.77.54.34.16.76.32,1.26.47.83.25,1.53.54,2.08.87s.97.72,1.25,1.18c.28.45.42.99.42,1.6,0,.65-.17,1.21-.5,1.67-.34.47-.81.83-1.42,1.08-.61.25-1.33.37-2.16.37-.55,0-1.1-.07-1.64-.22-.54-.15-1.02-.37-1.46-.68-.44-.3-.79-.69-1.04-1.15-.26-.46-.39-1.01-.39-1.64h2.23c0,.35.06.65.17.89.11.24.27.44.48.59.21.15.45.26.73.33.28.07.59.1.92.1.42,0,.77-.06,1.04-.17.27-.12.48-.28.61-.48.13-.2.2-.44.2-.7Z"/>
      <path class="cls-1" d="M156.06,68.89c0,.75-.11,1.42-.34,2.01-.23.59-.57,1.06-1.04,1.4s-1.07.51-1.79.51c-.83,0-1.5-.24-2.02-.73-.52-.48-.77-1.28-.77-2.4v-5.44h2.14v5.45c0,.34.05.6.16.8.11.2.26.34.44.43.19.09.4.13.63.13.49,0,.87-.09,1.15-.28.28-.19.48-.45.6-.78.12-.33.18-.7.18-1.11l.66-.02ZM155.13,64.25h2.14v8.41h-2.01l-.12-2v-6.4Z"/>
      <path class="cls-1" d="M162.8,71.1c.28,0,.54-.05.76-.16s.4-.26.53-.46c.13-.2.2-.43.21-.69h2c0,.58-.16,1.1-.48,1.55-.31.46-.73.82-1.25,1.08-.52.26-1.1.4-1.75.4-.86,0-1.58-.19-2.15-.57s-1-.89-1.28-1.53c-.29-.64-.43-1.36-.43-2.14v-.23c0-.79.14-1.5.43-2.14.28-.64.71-1.15,1.28-1.53.57-.38,1.28-.57,2.14-.57.69,0,1.29.13,1.81.4.52.27.92.64,1.22,1.13.29.49.45,1.06.45,1.72h-2c-.01-.28-.08-.54-.19-.77-.12-.23-.29-.42-.51-.56-.22-.14-.49-.21-.8-.21-.46,0-.81.12-1.05.36-.24.24-.41.55-.5.94-.09.39-.14.79-.14,1.22v.23c0,.44.04.85.13,1.24.09.38.25.69.5.93s.6.36,1.06.36Z"/>
      <path class="cls-1" d="M171.4,71.1c.28,0,.54-.05.76-.16s.4-.26.53-.46c.13-.2.2-.43.21-.69h2c0,.58-.16,1.1-.48,1.55-.31.46-.73.82-1.25,1.08-.52.26-1.1.4-1.75.4-.86,0-1.58-.19-2.15-.57s-1-.89-1.28-1.53c-.29-.64-.43-1.36-.43-2.14v-.23c0-.79.14-1.5.43-2.14.28-.64.71-1.15,1.28-1.53.57-.38,1.28-.57,2.14-.57.69,0,1.29.13,1.81.4.52.27.92.64,1.22,1.13.29.49.45,1.06.45,1.72h-2c-.01-.28-.08-.54-.19-.77-.12-.23-.29-.42-.51-.56-.22-.14-.49-.21-.8-.21-.46,0-.81.12-1.05.36-.24.24-.41.55-.5.94-.09.39-.14.79-.14,1.22v.23c0,.44.04.85.13,1.24.09.38.25.69.5.93s.6.36,1.06.36Z"/>
      <path class="cls-1" d="M180.34,72.81c-.85,0-1.59-.18-2.21-.55-.62-.36-1.09-.85-1.42-1.47-.33-.61-.49-1.3-.49-2.05v-.3c0-.86.16-1.62.49-2.27.32-.65.78-1.16,1.36-1.53s1.26-.55,2.04-.55c.81,0,1.49.17,2.03.52.54.35.95.83,1.23,1.45.28.62.42,1.34.42,2.16v.91h-6.6v-1.48h4.5v-.17c-.01-.31-.07-.58-.18-.84s-.28-.46-.5-.61c-.23-.15-.53-.23-.89-.23-.4,0-.73.11-.98.34-.26.23-.45.53-.57.92-.12.39-.19.85-.19,1.36v.3c0,.46.08.86.25,1.21.17.35.41.63.73.83.32.2.7.3,1.14.3s.81-.08,1.16-.24.65-.4.9-.73l1.07,1.16c-.26.39-.67.74-1.21,1.06-.54.32-1.23.48-2.05.48Z"/>
      <path class="cls-1" d="M189.99,70.34c0-.17-.05-.32-.14-.45-.09-.13-.26-.25-.51-.36-.25-.11-.62-.22-1.1-.31-.58-.12-1.1-.29-1.55-.5-.45-.21-.8-.48-1.06-.81-.26-.33-.38-.74-.38-1.22s.13-.89.4-1.28.64-.71,1.14-.95c.5-.24,1.09-.36,1.78-.36s1.34.12,1.86.35.92.55,1.2.96c.28.41.42.87.42,1.39h-2.14c0-.33-.11-.6-.33-.82s-.56-.33-1.01-.33c-.26,0-.49.04-.68.13s-.33.2-.43.34c-.1.14-.14.3-.14.49,0,.17.05.31.15.44s.27.24.5.33c.23.1.55.19.96.27.62.12,1.17.29,1.64.49.47.2.84.47,1.11.81.27.34.4.78.4,1.32,0,.49-.14.93-.43,1.32-.29.39-.69.69-1.22.91-.52.22-1.14.33-1.85.33-.78,0-1.44-.14-1.98-.42s-.94-.64-1.22-1.07c-.28-.43-.42-.88-.42-1.34h2.04c.02.31.11.56.26.75s.34.32.58.41c.24.09.49.13.77.13.3,0,.55-.04.75-.12.2-.08.35-.19.46-.33.1-.14.16-.3.16-.48Z"/>
      <path class="cls-1" d="M198.46,70.34c0-.17-.05-.32-.14-.45-.09-.13-.26-.25-.51-.36-.25-.11-.62-.22-1.1-.31-.58-.12-1.1-.29-1.55-.5-.45-.21-.8-.48-1.06-.81-.26-.33-.38-.74-.38-1.22s.13-.89.4-1.28.64-.71,1.14-.95c.5-.24,1.09-.36,1.78-.36s1.34.12,1.86.35.92.55,1.2.96c.28.41.42.87.42,1.39h-2.14c0-.33-.11-.6-.33-.82s-.56-.33-1.01-.33c-.26,0-.49.04-.68.13s-.33.2-.43.34c-.1.14-.14.3-.14.49,0,.17.05.31.15.44s.27.24.5.33c.23.1.55.19.96.27.62.12,1.17.29,1.64.49.47.2.84.47,1.11.81.27.34.4.78.4,1.32,0,.49-.14.93-.43,1.32-.29.39-.69.69-1.22.91-.52.22-1.14.33-1.85.33-.78,0-1.44-.14-1.98-.42s-.94-.64-1.22-1.07c-.28-.43-.42-.88-.42-1.34h2.04c.02.31.11.56.26.75s.34.32.58.41c.24.09.49.13.77.13.3,0,.55-.04.75-.12.2-.08.35-.19.46-.33.1-.14.16-.3.16-.48Z"/>
    </g>
    <g>
      <g>
        <path class="cls-1" d="M188.54,47.12h-7.75v-26.8h7.28l.47,6.34v20.46ZM196.32,27.63c-.36-.05-.8-.09-1.31-.14-.51-.04-.97-.06-1.36-.06-1.29,0-2.35.19-3.18.58-.83.39-1.45.97-1.85,1.73-.4.77-.61,1.74-.64,2.91l-1.49-.77c0-2.36.3-4.45.9-6.27.6-1.82,1.48-3.24,2.62-4.26,1.15-1.02,2.53-1.54,4.15-1.54.38,0,.78.02,1.21.07.43.05.78.13,1.04.25l-.1,7.48Z"/>
        <path class="cls-1" d="M198.55,33.53c0-2.72.44-5.11,1.32-7.17.88-2.06,2.14-3.66,3.78-4.8,1.63-1.15,3.57-1.72,5.82-1.72,1.82,0,3.33.35,4.53,1.04,1.2.69,2.18,1.66,2.93,2.91.75,1.25,1.34,2.71,1.77,4.4.43,1.68.77,3.52,1.02,5.5v.45c-.35,2.48-.9,4.74-1.67,6.79-.77,2.05-1.85,3.68-3.24,4.89-1.4,1.21-3.19,1.82-5.39,1.82s-4.16-.59-5.78-1.77c-1.63-1.18-2.88-2.79-3.76-4.84-.88-2.05-1.32-4.37-1.32-6.96v-.52ZM223.49,20.33v25.8c0,2.46-.56,4.55-1.67,6.28-1.11,1.72-2.67,3.03-4.66,3.93-1.99.89-4.3,1.34-6.92,1.34-1.11,0-2.29-.15-3.55-.45-1.26-.3-2.46-.75-3.59-1.36-1.13-.61-2.08-1.37-2.86-2.28l3.37-4.75c.76.84,1.68,1.53,2.75,2.06,1.07.53,2.27.79,3.59.79,1.83,0,3.25-.49,4.26-1.46,1.01-.97,1.51-2.34,1.51-4.11v-19.49l.74-6.29h7.03ZM206.3,34.05c0,1.35.18,2.58.54,3.69.36,1.11.92,1.99,1.67,2.64.75.65,1.71.98,2.88.98,1.25,0,2.27-.26,3.03-.79.77-.53,1.34-1.27,1.72-2.22.38-.95.59-2.05.62-3.31v-2.28c-.02-1.07-.13-2.03-.35-2.86-.21-.83-.54-1.53-.97-2.09-.43-.56-.97-.99-1.63-1.28-.66-.29-1.45-.43-2.38-.43-1.14,0-2.09.33-2.86.98-.77.65-1.34,1.54-1.72,2.65-.38,1.11-.57,2.38-.57,3.8v.52Z"/>
        <path class="cls-1" d="M8.07,47.12H0V15.24c0-2.3,1.87-4.17,4.17-4.17h3.9v36.06ZM23.75,17.58h-15.68v-6.51h15.68v6.51ZM22.11,32.66H5.89v-6.49h16.22v6.49Z"/>
        <path class="cls-1" d="M33.57,47.12h-3.91c-1.06,0-1.92-.86-1.92-1.92V12.99c0-1.06.86-1.92,1.92-1.92h3.91c1.06,0,1.92.86,1.92,1.92v32.22c0,1.06-.86,1.92-1.92,1.92Z"/>
        <path class="cls-1" d="M39.97,33.01c0-2.7.5-5.11,1.49-7.23.99-2.12,2.43-3.8,4.33-5.03,1.9-1.23,4.21-1.84,6.93-1.84s5.11.61,7.02,1.84c1.91,1.23,3.35,2.9,4.33,5.03.98,2.12,1.47,4.53,1.47,7.23v.54c0,2.68-.49,5.08-1.47,7.22-.98,2.13-2.42,3.81-4.32,5.03-1.9,1.22-4.23,1.83-6.98,1.83s-5.06-.61-6.97-1.83c-1.91-1.22-3.36-2.9-4.35-5.03-.99-2.13-1.49-4.54-1.49-7.22v-.54ZM47.72,33.54c0,1.42.16,2.7.47,3.86.31,1.16.84,2.08,1.58,2.76.74.68,1.74,1.02,3,1.02s2.25-.34,3-1.02c.74-.68,1.27-1.6,1.59-2.76.31-1.16.47-2.45.47-3.86v-.54c0-1.38-.16-2.66-.47-3.83-.31-1.17-.84-2.1-1.59-2.8-.74-.7-1.76-1.05-3.05-1.05s-2.22.35-2.96,1.05c-.73.7-1.26,1.63-1.57,2.8-.31,1.17-.47,2.44-.47,3.83v.54Z"/>
        <path class="cls-1" d="M151.06,33.01c0-2.7.5-5.11,1.49-7.23.99-2.12,2.43-3.8,4.33-5.03,1.9-1.23,4.21-1.84,6.93-1.84s5.11.61,7.02,1.84c1.91,1.23,3.35,2.9,4.33,5.03.98,2.12,1.47,4.53,1.47,7.23v.54c0,2.68-.49,5.08-1.47,7.22-.98,2.13-2.42,3.81-4.32,5.03-1.9,1.22-4.23,1.83-6.98,1.83s-5.06-.61-6.97-1.83c-1.91-1.22-3.36-2.9-4.35-5.03-.99-2.13-1.49-4.54-1.49-7.22v-.54ZM158.81,33.54c0,1.42.16,2.7.47,3.86.31,1.16.84,2.08,1.58,2.76.74.68,1.74,1.02,3,1.02s2.25-.34,3-1.02c.74-.68,1.27-1.6,1.59-2.76.31-1.16.47-2.45.47-3.86v-.54c0-1.38-.16-2.66-.47-3.83-.31-1.17-.84-2.1-1.59-2.8-.74-.7-1.76-1.05-3.05-1.05s-2.22.35-2.96,1.05c-.73.7-1.26,1.63-1.57,2.8-.31,1.17-.47,2.44-.47,3.83v.54Z"/>
      </g>
      <path class="cls-2" d="M76.4,19.59c1.09.09,1.92.97,2,2.05.37,5.14,3.7,10.94,7.42,14.42,1.13,1.06,2.24,1.85,3.24,2.25.55.22.96.31,1.18.23.43-.16.86-.98,1.23-2.68,1.55-6.98,4.56-13.17,8.43-17.17,1.86-1.92,3.94-3.38,6.19-4.25,2.41-.93,4.97-1.18,7.6-.59,2.74.61,5.49,2.11,8.14,4.67,3.76,3.63,5.75,3.61,7.2,2.12,1.4-1.44,2.81-3.85,4.32-6.4,3.19-5.4,6.7-11.34,12.82-14.03,1.25-.55,2.69.14,3.04,1.45l.94,3.51c.27,1.01-.2,2.06-1.12,2.54-3.66,1.89-6.35,6.45-8.81,10.6-1.74,2.95-3.38,5.74-5.44,7.87-4.75,4.92-10.21,6.08-18.46-1.9-1.55-1.5-3.01-2.34-4.33-2.64-1.03-.23-2.04-.12-3.01.25-1.13.44-2.24,1.25-3.31,2.35-2.88,2.97-5.17,7.79-6.41,13.36-1.02,4.62-3.23,7.28-6.09,8.39-2.24.88-4.65.71-7.05-.26-1.95-.78-3.91-2.12-5.74-3.85-5.04-4.72-9.53-12.85-9.94-20.22-.07-1.35,1.05-2.46,2.39-2.35l3.6.3Z"/>
    </g>
  </g>
</svg>