<svg xmlns="http://www.w3.org/2000/svg" xmlns:xlink="http://www.w3.org/1999/xlink" width="1920" zoomAndPan="magnify" viewBox="0 0 1440 809.999993" height="1080" preserveAspectRatio="xMidYMid meet" version="1.2"><defs><clipPath id="a53619eb04"><path d="M 365.910156 606.253906 L 394.898438 606.253906 L 394.898438 635.242188 L 365.910156 635.242188 Z M 365.910156 606.253906 "/></clipPath><clipPath id="e2f745868d"><path d="M 380.402344 606.253906 C 372.398438 606.253906 365.910156 612.742188 365.910156 620.75 C 365.910156 628.753906 372.398438 635.242188 380.402344 635.242188 C 388.410156 635.242188 394.898438 628.753906 394.898438 620.75 C 394.898438 612.742188 388.410156 606.253906 380.402344 606.253906 Z M 380.402344 606.253906 "/></clipPath><clipPath id="5bdb65f4ac"><path d="M 365.910156 606.253906 L 394.890625 606.253906 L 394.890625 635.234375 L 365.910156 635.234375 Z M 365.910156 606.253906 "/></clipPath><clipPath id="b3549d05ff"><path d="M 380.398438 606.253906 C 372.398438 606.253906 365.910156 612.742188 365.910156 620.742188 C 365.910156 628.746094 372.398438 635.234375 380.398438 635.234375 C 388.402344 635.234375 394.890625 628.746094 394.890625 620.742188 C 394.890625 612.742188 388.402344 606.253906 380.398438 606.253906 Z M 380.398438 606.253906 "/></clipPath><clipPath id="ae7d416950"><path d="M 653.683594 449.292969 L 682.671875 449.292969 L 682.671875 478.28125 L 653.683594 478.28125 Z M 653.683594 449.292969 "/></clipPath><clipPath id="fd0a6c1856"><path d="M 668.175781 449.292969 C 660.171875 449.292969 653.683594 455.78125 653.683594 463.785156 C 653.683594 471.792969 660.171875 478.28125 668.175781 478.28125 C 676.183594 478.28125 682.671875 471.792969 682.671875 463.785156 C 682.671875 455.78125 676.183594 449.292969 668.175781 449.292969 Z M 668.175781 449.292969 "/></clipPath><clipPath id="e4272788cb"><path d="M 653.683594 449.292969 L 682.664062 449.292969 L 682.664062 478.273438 L 653.683594 478.273438 Z M 653.683594 449.292969 "/></clipPath><clipPath id="9bba6ffcfe"><path d="M 668.171875 449.292969 C 660.171875 449.292969 653.683594 455.78125 653.683594 463.78125 C 653.683594 471.785156 660.171875 478.273438 668.171875 478.273438 C 676.175781 478.273438 682.664062 471.785156 682.664062 463.78125 C 682.664062 455.78125 676.175781 449.292969 668.171875 449.292969 Z M 668.171875 449.292969 "/></clipPath><clipPath id="a31674c4f9"><path d="M 954.660156 494.058594 L 983.652344 494.058594 L 983.652344 523.050781 L 954.660156 523.050781 Z M 954.660156 494.058594 "/></clipPath><clipPath id="fca9b3af0b"><path d="M 969.15625 494.058594 C 961.152344 494.058594 954.660156 500.546875 954.660156 508.554688 C 954.660156 516.558594 961.152344 523.050781 969.15625 523.050781 C 977.160156 523.050781 983.652344 516.558594 983.652344 508.554688 C 983.652344 500.546875 977.160156 494.058594 969.15625 494.058594 Z M 969.15625 494.058594 "/></clipPath><clipPath id="2f8d04b632"><path d="M 954.660156 494.058594 L 983.640625 494.058594 L 983.640625 523.039062 L 954.660156 523.039062 Z M 954.660156 494.058594 "/></clipPath><clipPath id="2a52da6a75"><path d="M 969.152344 494.058594 C 961.148438 494.058594 954.660156 500.546875 954.660156 508.550781 C 954.660156 516.550781 961.148438 523.039062 969.152344 523.039062 C 977.15625 523.039062 983.640625 516.550781 983.640625 508.550781 C 983.640625 500.546875 977.15625 494.058594 969.152344 494.058594 Z M 969.152344 494.058594 "/></clipPath><clipPath id="8c02663761"><path d="M 1157.472656 208.292969 L 1186.464844 208.292969 L 1186.464844 237.285156 L 1157.472656 237.285156 Z M 1157.472656 208.292969 "/></clipPath><clipPath id="4ec5dba350"><path d="M 1171.96875 208.292969 C 1163.964844 208.292969 1157.472656 214.785156 1157.472656 222.789062 C 1157.472656 230.792969 1163.964844 237.285156 1171.96875 237.285156 C 1179.972656 237.285156 1186.464844 230.792969 1186.464844 222.789062 C 1186.464844 214.785156 1179.972656 208.292969 1171.96875 208.292969 Z M 1171.96875 208.292969 "/></clipPath><clipPath id="31ec2e0f2c"><path d="M 1157.472656 208.292969 L 1186.453125 208.292969 L 1186.453125 237.273438 L 1157.472656 237.273438 Z M 1157.472656 208.292969 "/></clipPath><clipPath id="05a0c3b9c6"><path d="M 1171.964844 208.292969 C 1163.960938 208.292969 1157.472656 214.78125 1157.472656 222.785156 C 1157.472656 230.789062 1163.960938 237.273438 1171.964844 237.273438 C 1179.964844 237.273438 1186.453125 230.789062 1186.453125 222.785156 C 1186.453125 214.78125 1179.964844 208.292969 1171.964844 208.292969 Z M 1171.964844 208.292969 "/></clipPath></defs><g id="c78f25b24a"><path style="fill:none;stroke-width:11;stroke-linecap:butt;stroke-linejoin:miter;stroke:#1ad7ad;stroke-opacity:1;stroke-miterlimit:4;" d="M 3.065373 4.567276 C 275.039485 186.920964 460.009722 186.921876 557.970903 4.570527 " transform="matrix(0.746341,0.0739947,-0.0739947,0.746341,127.679047,488.173027)"/><path style="fill:none;stroke-width:11;stroke-linecap:butt;stroke-linejoin:miter;stroke:#1ad7ad;stroke-opacity:1;stroke-miterlimit:4;" d="M 4.113848 74.552388 C 85.887696 -17.5188 227.299447 -17.519707 428.343264 74.554162 " transform="matrix(0.743729,-0.096787,0.096787,0.743729,533.502051,477.818612)"/><path style="fill:none;stroke-width:11;stroke-linecap:butt;stroke-linejoin:miter;stroke:#1ad7ad;stroke-opacity:1;stroke-miterlimit:4;" d="M 4.774915 4.045374 C 91.41707 155.686939 217.114033 155.687582 381.865804 4.047301 " transform="matrix(0.619823,-0.423734,0.422359,0.617812,854.620859,491.320891)"/><path style="fill:none;stroke-width:11;stroke-linecap:butt;stroke-linejoin:miter;stroke:#1ad7ad;stroke-opacity:1;stroke-miterlimit:4;" d="M 3.88786 96.239176 C 125.028546 -24.749141 246.171029 -24.746961 367.317401 96.24094 " transform="matrix(0.686073,-0.300666,0.300666,0.686073,1061.123401,267.255095)"/><g clip-rule="nonzero" clip-path="url(#a53619eb04)"><g clip-rule="nonzero" clip-path="url(#e2f745868d)"><path style=" stroke:none;fill-rule:nonzero;fill:#1ad7ad;fill-opacity:1;" d="M 365.910156 606.253906 L 394.898438 606.253906 L 394.898438 635.242188 L 365.910156 635.242188 Z M 365.910156 606.253906 "/></g></g><g clip-rule="nonzero" clip-path="url(#5bdb65f4ac)"><g clip-rule="nonzero" clip-path="url(#b3549d05ff)"><path style="fill:none;stroke-width:18;stroke-linecap:butt;stroke-linejoin:miter;stroke:#ffffff;stroke-opacity:1;stroke-miterlimit:4;" d="M 19.319185 0.000283666 C 8.652518 0.000283666 0.00147578 8.651326 0.00147578 19.317993 C 0.00147578 29.989869 8.652518 38.640911 19.319185 38.640911 C 29.991061 38.640911 38.642103 29.989869 38.642103 19.317993 C 38.642103 8.651326 29.991061 0.000283666 19.319185 0.000283666 Z M 19.319185 0.000283666 " transform="matrix(0.75,0,0,0.75,365.909049,606.253694)"/></g></g><g clip-rule="nonzero" clip-path="url(#ae7d416950)"><g clip-rule="nonzero" clip-path="url(#fd0a6c1856)"><path style=" stroke:none;fill-rule:nonzero;fill:#1ad7ad;fill-opacity:1;" d="M 653.683594 449.292969 L 682.671875 449.292969 L 682.671875 478.28125 L 653.683594 478.28125 Z M 653.683594 449.292969 "/></g></g><g clip-rule="nonzero" clip-path="url(#e4272788cb)"><g clip-rule="nonzero" clip-path="url(#9bba6ffcfe)"><path style="fill:none;stroke-width:18;stroke-linecap:butt;stroke-linejoin:miter;stroke:#ffffff;stroke-opacity:1;stroke-miterlimit:4;" d="M 19.31875 0.00107114 C 8.652083 0.00107114 0.00104055 8.652113 0.00104055 19.31878 C 0.00104055 29.990656 8.652083 38.641698 19.31875 38.641698 C 29.990625 38.641698 38.641667 29.990656 38.641667 19.31878 C 38.641667 8.652113 29.990625 0.00107114 19.31875 0.00107114 Z M 19.31875 0.00107114 " transform="matrix(0.75,0,0,0.75,653.682813,449.292165)"/></g></g><g clip-rule="nonzero" clip-path="url(#a31674c4f9)"><g clip-rule="nonzero" clip-path="url(#fca9b3af0b)"><path style=" stroke:none;fill-rule:nonzero;fill:#1ad7ad;fill-opacity:1;" d="M 954.660156 494.058594 L 983.652344 494.058594 L 983.652344 523.050781 L 954.660156 523.050781 Z M 954.660156 494.058594 "/></g></g><g clip-rule="nonzero" clip-path="url(#2f8d04b632)"><g clip-rule="nonzero" clip-path="url(#2a52da6a75)"><path style="fill:none;stroke-width:18;stroke-linecap:butt;stroke-linejoin:miter;stroke:#ffffff;stroke-opacity:1;stroke-miterlimit:4;" d="M 19.321006 -0.000737859 C 8.64913 -0.000737859 -0.00191193 8.650304 -0.00191193 19.32218 C -0.00191193 29.988847 8.64913 38.639889 19.321006 38.639889 C 29.992881 38.639889 38.638715 29.988847 38.638715 19.32218 C 38.638715 8.650304 29.992881 -0.000737859 19.321006 -0.000737859 Z M 19.321006 -0.000737859 " transform="matrix(0.75,0,0,0.75,954.66159,494.059147)"/></g></g><g clip-rule="nonzero" clip-path="url(#8c02663761)"><g clip-rule="nonzero" clip-path="url(#4ec5dba350)"><path style=" stroke:none;fill-rule:nonzero;fill:#1ad7ad;fill-opacity:1;" d="M 1157.472656 208.292969 L 1186.464844 208.292969 L 1186.464844 237.285156 L 1157.472656 237.285156 Z M 1157.472656 208.292969 "/></g></g><g clip-rule="nonzero" clip-path="url(#31ec2e0f2c)"><g clip-rule="nonzero" clip-path="url(#05a0c3b9c6)"><path style="fill:none;stroke-width:18;stroke-linecap:butt;stroke-linejoin:miter;stroke:#ffffff;stroke-opacity:1;stroke-miterlimit:4;" d="M 19.32159 -0.00179516 C 8.649714 -0.00179516 -0.00132766 8.649247 -0.00132766 19.321122 C -0.00132766 29.992998 8.649714 38.638832 19.32159 38.638832 C 29.988257 38.638832 38.639299 29.992998 38.639299 19.321122 C 38.639299 8.649247 29.988257 -0.00179516 19.32159 -0.00179516 Z M 19.32159 -0.00179516 " transform="matrix(0.75,0,0,0.75,1157.473652,208.294315)"/></g></g></g></svg>