<?xml version="1.0" encoding="UTF-8"?>
<svg id="Layer_2" data-name="Layer 2" xmlns="http://www.w3.org/2000/svg" viewBox="0 0 82 82">
  <defs>
    <style>
      .cls-1 {
        fill: #53c0a3;
      }

      .cls-2 {
        fill: #fff;
        fill-rule: evenodd;
      }
    </style>
  </defs>
  <g id="Layer_1-2" data-name="Layer 1">
    <g>
      <circle class="cls-1" cx="41" cy="41" r="41"/>
      <path class="cls-2" d="M15.66,38.51c-.36,4.37,2.56,9.79,5.86,12.87.89.84,1.78,1.46,2.57,1.77.43.17.76.25.93.19.33-.14.66-.79.96-2.12,1.21-5.51,3.59-10.4,6.64-13.57,1.46-1.52,3.1-2.66,4.88-3.36,1.9-.73,3.91-.92,6-.47,2.17.47,4.34,1.66,6.42,3.67,2.98,2.86,4.55,2.85,5.69,1.67,1.11-1.14,2.23-3.04,3.42-5.06,2.83-4.8,5.96-10.14,12.01-11.77l1.64,6.08c-3.56.95-6.02,5.14-8.23,8.88-1.38,2.33-2.67,4.53-4.3,6.21-3.75,3.89-8.06,4.81-14.58-1.48-1.22-1.19-2.38-1.85-3.42-2.09-.81-.17-1.6-.09-2.38.21-.89.33-1.77.98-2.61,1.86-2.26,2.35-4.07,6.15-5.04,10.56-.8,3.64-2.55,5.74-4.81,6.63-1.76.7-3.66.56-5.56-.2-1.54-.62-3.09-1.68-4.53-3.02-4.46-4.16-8.36-11.68-7.84-17.97l6.29.5Z"/>
    </g>
  </g>
</svg>